<svg xmlns="http://www.w3.org/2000/svg" viewBox="0 0 64 64">
  <path d="M32 4 L56 12 V28 C56 44 44 56 32 60 C20 56 8 44 8 28 V12 Z" fill="#0A1F44"/>
  <path d="M20 20 C16 20,14 24,16 28 C14 32,16 36,20 36 C22 40,28 40,30 36 C34 36,36 32,34 28 C36 24,34 20,30 20 C28 16,22 16,20 20 Z" fill="#4FC3F7"/>
  <g stroke="#00E5FF" stroke-width="2" fill="none">
    <line x1="38" y1="20" x2="48" y2="20"/>
    <line x1="38" y1="28" x2="48" y2="28"/>
    <line x1="38" y1="36" x2="48" y2="36"/>
    <circle cx="50" cy="20" r="2" fill="#00E5FF"/>
    <circle cx="50" cy="28" r="2" fill="#00E5FF"/>
    <circle cx="50" cy="36" r="2" fill="#00E5FF"/>
  </g>
</svg>
